<svg xmlns="http://www.w3.org/2000/svg" width="220" height="85" fill="none" viewBox="0 0 220 85">
  <rect width="196" height="51" x=".5" y=".5" fill="#000" stroke="#00ACC1" rx="2.5" />
  <path fill="#00ACC1"
    d="M47 19.78c1.017 2.974 3.738 7.8 5.624 10.08l-3.679 2.422c-1.774-2.226-6.359-9.383-7.507-12.502H47Z" />
  <path fill="#00ACC1"
    d="M54.927 33.857c-.74-.98-3.585-5.786-3.585-5.786l-1.853 2.868-1.22.145s3.172 6.03 4.893 7.443c1.688 2.238 4.044 3.51 5.894 3.736 1.943.232 3.888-.785 5.673-3.523 1.218-1.878 2.348-4.495 3.324-7.987-1.284 2.597-5.278 13.513-13.126 3.104Z" />
  <path fill="#00ACC1"
    d="M46.755 42.029h-5.561s14.065-23.873 23.418-26.22l.02.028C55.099 24.946 46.756 42.03 46.756 42.03Z" />
  <path fill="#00ACC1" fill-rule="evenodd"
    d="M48.32 13.805c.413-1.946 2.316-3.197 4.242-2.807 1.948.409 3.196 2.31 2.784 4.238a3.559 3.559 0 0 1-4.219 2.788 3.584 3.584 0 0 1-2.806-4.22Z"
    clip-rule="evenodd" />
  <path fill="#00ACC1"
    d="M16.312 42h-5.808V14.16h15.958v4.836h-10.15v7.18h9.445v4.817h-9.445V42ZM31 20h6v22h-6zM74 0h143a3 3 0 0 1 3 3v46a3 3 0 0 1-3 3H74V0Z" />
  <path fill="#000"
    d="M106.26 42h-5.884V29.984H89.35V42h-5.903V14.16h5.903v10.91h11.026V14.16h5.884V42Zm15.368-21.69c1.967 0 3.662.38 5.084 1.143 1.422.749 2.52 1.84 3.295 3.275.774 1.435 1.161 3.187 1.161 5.256v2.818h-13.73c.064 1.638.552 2.926 1.467 3.866.926.927 2.209 1.39 3.846 1.39 1.359 0 2.603-.14 3.733-.419 1.13-.28 2.291-.698 3.485-1.257v4.495c-1.054.52-2.159.9-3.314 1.142-1.143.241-2.533.362-4.17.362-2.133 0-4.025-.394-5.675-1.18-1.638-.788-2.926-1.988-3.866-3.6-.927-1.612-1.39-3.643-1.39-6.094 0-2.488.419-4.557 1.257-6.208.85-1.663 2.031-2.907 3.542-3.732 1.511-.838 3.269-1.257 5.275-1.257Zm.038 4.132c-1.13 0-2.07.362-2.819 1.086-.736.724-1.161 1.86-1.275 3.409h8.15c-.013-.864-.171-1.632-.476-2.305a3.576 3.576 0 0 0-1.333-1.6c-.584-.393-1.333-.59-2.247-.59Zm22.947-4.17c2.856 0 5.046.622 6.569 1.866 1.524 1.244 2.286 3.136 2.286 5.675V42h-4.057l-1.123-2.895h-.153c-.609.762-1.231 1.384-1.866 1.867a6.389 6.389 0 0 1-2.19 1.066c-.825.229-1.828.343-3.008.343-1.257 0-2.387-.241-3.39-.724-.99-.482-1.771-1.218-2.342-2.209-.572-1.003-.857-2.272-.857-3.808 0-2.26.793-3.923 2.38-4.99 1.587-1.079 3.967-1.675 7.141-1.79l3.695-.114v-.933c0-1.117-.292-1.936-.876-2.457-.584-.52-1.397-.78-2.438-.78-1.028 0-2.038.146-3.028.438-.99.292-1.98.66-2.971 1.104l-1.923-3.923c1.13-.596 2.393-1.066 3.79-1.409a18.389 18.389 0 0 1 4.361-.514Zm3.085 11.864-2.248.076c-1.878.05-3.186.387-3.922 1.01-.724.621-1.086 1.44-1.086 2.456 0 .888.26 1.523.781 1.904.52.368 1.2.552 2.037.552 1.245 0 2.292-.368 3.143-1.104.863-.736 1.295-1.784 1.295-3.142v-1.752ZM165.274 42h-5.808V12.37h5.808V42Zm15.082-4.247c.635 0 1.251-.063 1.847-.19.61-.127 1.213-.286 1.809-.476v4.323c-.622.279-1.396.508-2.323.685-.914.19-1.917.286-3.009.286-1.269 0-2.412-.203-3.427-.61-1.003-.419-1.797-1.136-2.381-2.151-.571-1.029-.857-2.457-.857-4.285V25.071h-2.78v-2.457l3.199-1.942 1.676-4.494h3.713v4.532h5.961v4.36h-5.961v10.265c0 .813.229 1.422.686 1.828.47.394 1.085.59 1.847.59Zm13.787-25.384v6.037c0 1.053-.038 2.056-.114 3.009a76.827 76.827 0 0 1-.152 2.018h.304c.457-.736.997-1.333 1.619-1.79a6.666 6.666 0 0 1 2.095-1.01 8.97 8.97 0 0 1 2.456-.323c1.536 0 2.876.273 4.018.819 1.143.533 2.032 1.377 2.666 2.533.635 1.142.953 2.628.953 4.456V42h-5.809V29.565c0-1.524-.279-2.672-.837-3.447-.559-.774-1.422-1.162-2.59-1.162s-2.089.274-2.762.82c-.672.533-1.148 1.326-1.428 2.38-.279 1.04-.419 2.317-.419 3.827V42h-5.808V12.37h5.808Z" />
</svg>